<svg xmlns="http://www.w3.org/2000/svg" width="100" height="100" fill="none" viewBox="0 0 100 100">
  <rect width="100" height="100" fill="#fff" rx="50"/>
  <path fill="#62D84E" d="M59.089 26.148a8 8 0 1 1-16 0 8 8 0 0 1 16 0Z"/>
  <path fill="#C4CED4" d="M72.055 72.14a8 8 0 1 1 0-16 8 8 0 0 1 0 16Z"/>
  <path fill="#198F06" d="M41.089 26.148c0-5.522 4.477-10 10-10s10 4.478 10 10a9.98 9.98 0 0 1-3.633 7.712l8.397 13.402c8.571-3.177 18.322.606 22.414 8.996 4.358 8.935.648 19.711-8.288 24.07-8.935 4.357-19.71.647-24.069-8.288a2 2 0 1 1 3.596-1.754c3.39 6.95 11.77 9.835 18.72 6.446 6.95-3.39 9.835-11.77 6.446-18.72-3.384-6.939-11.745-9.827-18.688-6.462a2 2 0 0 1-2.613-.715l-9.456-15.092a10 10 0 0 1-2.826.405c-5.523 0-10-4.477-10-10Zm10-6a6 6 0 1 0 0 12 6 6 0 0 0 0-12Z"/>
  <path fill="#1B4459" d="M38.843 19.36c3.749-6.762 12.27-9.205 19.032-5.457 6.763 3.749 9.206 12.27 5.458 19.032a2 2 0 0 0 3.498 1.94c4.82-8.695 1.678-19.65-7.016-24.47-8.695-4.82-19.65-1.678-24.47 7.016-4.557 8.222-1.996 18.465 5.647 23.63l-8.08 13.42a10.015 10.015 0 0 0-2.563-.332c-5.523 0-10 4.477-10 10s4.477 10 10 10 10-4.477 10-10a9.983 9.983 0 0 0-3.845-7.882l8.94-14.844a2 2 0 0 0-.89-2.854 2.016 2.016 0 0 0-.253-.166c-6.763-3.749-9.206-12.27-5.458-19.033ZM36.35 64.14a6 6 0 1 1-12 0 6 6 0 0 1 12 0Z"/>
  <path fill="#1B4459" d="M29.844 78.145c-7.731-.135-13.889-6.511-13.754-14.242.135-7.73 6.512-13.888 14.242-13.753a2 2 0 0 0 .07-4c-9.94-.173-18.138 7.744-18.311 17.683-.174 9.94 7.743 18.138 17.683 18.312 9.22.16 16.94-6.639 18.15-15.557h14.104c.11 0 .217-.008.322-.025 1.083 4.351 5.017 7.576 9.704 7.576 5.523 0 10-4.477 10-10s-4.477-10-10-10c-4.997 0-9.138 3.666-9.881 8.455a2.002 2.002 0 0 0-.145-.006H46.065a2 2 0 0 0-1.991 2.19c-.336 7.548-6.629 13.5-14.23 13.367Zm42.21-20.006a6 6 0 1 1 0 12 6 6 0 0 1 0-12Z"/>
</svg>
