<?xml version="1.0" encoding="UTF-8"?>
<svg xmlns="http://www.w3.org/2000/svg" class="svg" id="Icons"
    viewBox="0 0 64 64">
    <defs />
    <path class="cls-1" style="fill:#62d84e;;"
        d="M2,10V22H62V10Zm7,9a3,3,0,1,1,3-3A3,3,0,0,1,9,19Zm8,0a3,3,0,1,1,3-3A3,3,0,0,1,17,19Zm8,0a3,3,0,1,1,3-3A3,3,0,0,1,25,19Z" />
    <path class="cls-1" style="fill:#62d84e;;"
        d="M51.73,48a1.18,1.18,0,0,0,1.14-1.68c-2.55-4.62-2.83-13.61-5-13.61-2.51,0-2.51,4.7-5,4.7S41.58,28,39.07,28,35.31,42.12,32.8,42.12s-1.43-5.63-3.93-5.63c-2.06,0-2.66,6.51-3.82,10A1.21,1.21,0,0,0,26.28,48Z" />
    <path
        d="M58.5,7H4.5A4.49,4.49,0,0,0,0,11.5v42A4.49,4.49,0,0,0,4.5,58h54A4.49,4.49,0,0,0,63,53.5v-42A4.49,4.49,0,0,0,58.5,7ZM60,53.5A1.5,1.5,0,0,1,58.5,55H4.5A1.5,1.5,0,0,1,3,53.5v-42A1.5,1.5,0,0,1,4.5,10h54A1.5,1.5,0,0,1,60,11.5Zm-50-23A1.5,1.5,0,0,1,11.5,29h6a1.5,1.5,0,0,1,0,3h-6A1.5,1.5,0,0,1,10,30.5Zm11,8A1.5,1.5,0,0,1,19.5,40h-8a1.5,1.5,0,0,1,0-3h8A1.5,1.5,0,0,1,21,38.5Zm-2,8A1.5,1.5,0,0,1,17.5,48h-6a1.5,1.5,0,0,1,0-3h6A1.5,1.5,0,0,1,19,46.5Z" />
    <rect class="cls-2" style="fill:none;;" width="64" height="64" />
</svg>